<?xml version="1.0" encoding="iso-8859-1"?>
<!-- Generator: Adobe Illustrator 16.0.0, SVG Export Plug-In . SVG Version: 6.00 Build 0)  -->
<!DOCTYPE svg PUBLIC "-//W3C//DTD SVG 1.1//EN" "http://www.w3.org/Graphics/SVG/1.1/DTD/svg11.dtd">
<svg version="1.1" id="Layer_1" xmlns="http://www.w3.org/2000/svg" xmlns:xlink="http://www.w3.org/1999/xlink" x="0px" y="0px"
	 width="300px" height="50px" viewBox="0 0 300 50" style="enable-background:new 0 0 300 50;" xml:space="preserve">
<g>
	<rect style="fill:#FFD200;" width="134" height="50"/>
	<g>
		<path d="M24.397,29.132l6.892-17.229h6.543l-10.88,27.065h-5.11l-10.88-27.065h6.543L24.397,29.132z"/>
		<path d="M58.662,38.968l-2.517-5.848H44.801l-2.517,5.848h-6.428L47.55,11.903h5.846l11.693,27.065H58.662z M50.493,19.957
			l-3.408,7.859h6.776L50.493,19.957z"/>
		<path d="M68.225,11.903h6.04v11.112l10.221-11.112h7.473L81.195,23.867c0.929,1.292,2.645,3.697,5.149,7.221
			c2.503,3.523,4.375,6.149,5.614,7.88h-7.047L76.975,28.28l-2.71,3.021v7.667h-6.04V11.903z"/>
		<path d="M95.714,11.903h6.04v27.065h-6.04V11.903z"/>
		<path d="M108.413,38.968V11.903h6.04v21.682h11.539v5.383H108.413z"/>
		<path d="M149.24,15.466c-1.33,0-2.419,0.27-3.271,0.812c-0.852,0.542-1.278,1.362-1.278,2.458c0,1.097,0.426,1.936,1.278,2.516
			c0.852,0.582,2.665,1.207,5.44,1.878c2.773,0.672,4.864,1.614,6.272,2.826c1.406,1.215,2.109,3,2.109,5.363
			c0,2.361-0.891,4.278-2.672,5.749c-1.781,1.472-4.118,2.208-7.007,2.208c-4.234,0-7.989-1.459-11.268-4.376l2.866-3.445
			c2.735,2.375,5.575,3.562,8.518,3.562c1.47,0,2.638-0.315,3.503-0.948c0.864-0.633,1.298-1.473,1.298-2.517
			c0-1.046-0.408-1.859-1.222-2.439c-0.812-0.582-2.213-1.11-4.199-1.587c-1.989-0.478-3.499-0.917-4.531-1.317
			c-1.032-0.399-1.949-0.922-2.748-1.568c-1.602-1.213-2.401-3.071-2.401-5.575c0-2.503,0.91-4.434,2.73-5.789
			c1.82-1.354,4.071-2.033,6.757-2.033c1.729,0,3.444,0.284,5.148,0.852c1.703,0.568,3.175,1.368,4.414,2.4l-2.438,3.446
			c-0.803-0.721-1.886-1.316-3.254-1.78C151.918,15.698,150.569,15.466,149.24,15.466z"/>
		<path d="M184.453,11.903V16.2h-14.44v7.163h12.97v4.065h-12.97v7.24h14.905v4.299h-19.476V11.903H184.453z"/>
		<path d="M194.597,32.81l-2.708,6.158h-4.879l11.923-27.065h4.88l11.925,27.065h-4.879l-2.709-6.158H194.597z M206.29,28.59
			l-4.917-11.15l-4.916,11.15H206.29z"/>
		<path d="M241.097,20.691c0,4.467-1.949,7.279-5.846,8.44l7.085,9.836h-5.808l-6.465-9.1h-6.002v9.1h-4.569V11.903h10.066
			c4.131,0,7.085,0.697,8.867,2.091C240.207,15.387,241.097,17.62,241.097,20.691z M235.019,24.525
			c0.929-0.801,1.394-2.084,1.394-3.853c0-1.768-0.479-2.981-1.433-3.64s-2.658-0.987-5.11-0.987h-5.808v9.679h5.69
			C232.333,25.725,234.09,25.325,235.019,24.525z"/>
		<path d="M260.031,34.824c1.572,0,2.928-0.265,4.065-0.794c1.134-0.529,2.321-1.374,3.56-2.535l2.943,3.02
			c-2.863,3.174-6.343,4.763-10.434,4.763c-4.092,0-7.485-1.317-10.184-3.949c-2.697-2.635-4.045-5.964-4.045-9.99
			c0-4.027,1.375-7.383,4.122-10.067c2.749-2.684,6.222-4.027,10.415-4.027c4.194,0,7.698,1.549,10.513,4.647l-2.904,3.174
			c-1.291-1.239-2.511-2.104-3.658-2.594c-1.148-0.491-2.498-0.736-4.047-0.736c-2.736,0-5.032,0.885-6.891,2.653
			c-1.859,1.768-2.788,4.026-2.788,6.775c0,2.749,0.922,5.047,2.768,6.892C255.312,33.902,257.5,34.824,260.031,34.824z"/>
		<path d="M276.175,38.968V11.903h4.568v11.732h13.436V11.903h4.568v27.065h-4.568V27.894h-13.436v11.074H276.175z"/>
	</g>
</g>
</svg>
